<?xml version="1.0" encoding="UTF-8" standalone="no"?>
<svg
   width="708"
   height="169"
   viewBox="0 0 708 169"
   fill="none"
   version="1.1"
   id="svg6"
   sodipodi:docname="searxng.svg"
   inkscape:version="1.4 (e7c3feb100, 2024-10-09)"
   xmlns:inkscape="http://www.inkscape.org/namespaces/inkscape"
   xmlns:sodipodi="http://sodipodi.sourceforge.net/DTD/sodipodi-0.dtd"
   xmlns="http://www.w3.org/2000/svg"
   xmlns:svg="http://www.w3.org/2000/svg">
  <defs
     id="defs6" />
  <sodipodi:namedview
     id="namedview6"
     pagecolor="#ffffff"
     bordercolor="#000000"
     borderopacity="0.25"
     inkscape:showpageshadow="2"
     inkscape:pageopacity="0.0"
     inkscape:pagecheckerboard="0"
     inkscape:deskcolor="#d1d1d1"
     inkscape:zoom="0.58138182"
     inkscape:cx="-250.26582"
     inkscape:cy="-54.181261"
     inkscape:window-width="1536"
     inkscape:window-height="792"
     inkscape:window-x="0"
     inkscape:window-y="0"
     inkscape:window-maximized="1"
     inkscape:current-layer="svg6" />
  <rect
     width="169"
     height="169"
     rx="84.5"
     fill="#864AF9"
     id="rect1" />
  <path
     d="m 27.1675,107.792 c 0.0623,0.176 0.117,0.325 0.1626,0.447 0.0248,0.08 0.0546,0.174 0.0891,0.283 0.1082,0.34 0.2636,0.82 0.4607,1.407 0.3925,1.168 0.9585,2.782 1.6533,4.564 1.2756,3.271 3.3712,8.145 6.0315,11.495 3.8412,4.837 13.0949,15.164 26.8853,16.463 9.7839,0.921 18.2369,-0.658 32.5436,-3.33 2.7741,-0.518 5.7684,-1.078 9.0344,-1.668 11.283,-2.038 18.531,-5.181 23.562,-8.629 2.51,-1.72 4.308,-3.408 5.661,-4.813 0.488,-0.506 0.956,-1.018 1.304,-1.398 0.098,-0.107 0.187,-0.204 0.263,-0.287 0.196,-0.213 0.335,-0.36 0.446,-0.473 0.104,-0.106 0.15,-0.147 0.153,-0.15 v 0 c 1.838,-1.614 3.346,-3.953 4.439,-5.965 1.207,-2.224 2.363,-4.907 3.237,-7.793 1.619,-5.349 2.841,-13.3286 -0.833,-20.2485 l -7.066,3.7517 7.066,-3.7517 c -0.96169,-3.465536 -1.454,-4.7762 -1.771,-10.3126 -0.301,-5.2508 -0.698,-12.1333 -3.495,-20.5181 C 131.083,39.1444 119.212,32.763 110.816,28.4849 100.463,23.2097 87.6848,22.6606 70.4863,27.3382 c -9.7635,2.6555 -17.7271,8.468 -23.0392,13.2471 -2.7057,2.4343 -4.849,4.7146 -6.3289,6.4018 -0.7423,0.8463 -1.324,1.5507 -1.7325,2.0599 -0.1332,0.1662 -0.2483,0.3119 -0.3447,0.4352 -0.0762,0.0804 -0.1614,0.171 -0.2549,0.2717 -0.3721,0.4008 -0.8781,0.9631 -1.4784,1.6744 -1.1971,1.4183 -2.7897,3.4528 -4.4516,6.0018 -3.2815,5.0332 -7.0649,12.4275 -8.3134,21.2831 -1.1784,8.3594 -0.4807,15.7069 0.5022,20.9608 0.4934,2.637 1.0649,4.781 1.528,6.303 0.232,0.763 0.4377,1.373 0.5946,1.815 z"
     fill="#ffffff"
     stroke="#f8e287"
     stroke-width="16"
     id="path1"
     sodipodi:nodetypes="cccccccccccsccsscccccccccccccccccccc" />
  <path
     d="M31.1144 106.938C31.1418 107.026 31.181 107.152 31.2313 107.31C31.3336 107.632 31.4822 108.091 31.6716 108.655C32.0495 109.78 32.5938 111.332 33.2599 113.04C34.535 116.31 36.4495 120.67 38.6971 123.5C42.4528 128.23 50.7966 137.335 62.8252 138.468C72.0074 139.333 79.814 137.878 94.1333 135.209C96.9271 134.689 99.9689 134.122 103.317 133.517C114.185 131.554 120.869 128.581 125.329 125.524C127.556 123.998 129.148 122.505 130.37 121.236C130.818 120.771 131.235 120.315 131.581 119.938C131.687 119.822 131.786 119.714 131.877 119.615C132.305 119.151 132.57 118.88 132.778 118.697C134.078 117.555 135.316 115.716 136.34 113.83C137.422 111.837 138.471 109.406 139.264 106.786C140.786 101.759 141.648 95.0734 138.727 89.5724C137.042 86.3993 136.802 82.9637 136.496 77.6128C136.197 72.4047 135.817 65.9777 133.2 58.1315C127.807 41.9633 117.163 36.2081 109 32.0489C99.8589 27.3911 88.2004 26.6657 71.5361 31.198C62.6218 33.6225 55.2052 38.9862 50.1224 43.559C47.5563 45.8677 45.5233 48.031 44.1254 49.6247C43.4252 50.423 42.8812 51.082 42.5061 51.5497C42.3208 51.7808 42.1764 51.9654 42.0746 52.0975C41.9821 52.1935 41.862 52.3199 41.7173 52.4757C41.3845 52.8341 40.9208 53.3492 40.3645 54.0083C39.2537 55.3243 37.7637 57.2268 36.2068 59.6147C33.1144 64.358 29.6423 71.1942 28.5036 79.2716C27.3998 87.1008 28.0526 93.9993 28.9767 98.9384C29.4397 101.413 29.9739 103.413 30.3998 104.813C30.613 105.514 30.7995 106.066 30.9373 106.455C31.0062 106.649 31.063 106.802 31.1049 106.913C31.1082 106.922 31.1113 106.93 31.1144 106.938Z"
     fill="white"
     stroke="#221B00"
     stroke-width="8"
     id="path2" />
  <ellipse
     cx="8.59874"
     cy="20.7814"
     rx="8.59874"
     ry="20.7814"
     transform="matrix(0.975065 -0.221919 0.16002 0.987114 34.8319 75.0587)"
     fill="#221B00"
     id="ellipse2" />
  <path
     fill-rule="evenodd"
     clip-rule="evenodd"
     d="M79.2564 55.1454C70.8891 56.4624 63.4929 68.8016 63.2352 81.8749C62.8189 102.954 86.7941 109.095 95.0139 90.015C98.4154 82.12 97.6754 68.6329 93.4929 62.2734C90.3345 57.4721 84.1489 54.3752 79.2564 55.1454ZM86.2016 63.5277C92.0025 69.1489 93.7736 81.5879 89.7704 88.5844C85.0649 96.8076 72.6879 97.3917 68.3234 89.5958L67.3846 87.919L68.4668 89.0386C72.2706 92.9739 77.5448 92.7211 82.4689 88.3676C88.4605 83.0704 89.6201 73.2076 85.2736 64.5115C83.7163 61.3962 83.8529 61.251 86.2016 63.5277ZM79.6012 66.273C81.0356 67.9332 81.0868 71.4002 79.7196 74.3066C76.8233 80.4651 70.3974 78.7661 71.627 72.1667C72.6489 66.6808 77.1067 63.3857 79.6012 66.273ZM121.66 89.5724C116.343 90.3067 113.319 94.6173 113.938 100.579C114.3 104.067 116.041 108.232 117.943 110.16C119.198 111.432 119.185 111.505 117.54 112.606C110.095 117.588 100.952 115.794 94.6196 108.108C93.0524 106.206 92.8904 106.245 93.614 108.352C97.4399 119.501 112.121 123.417 120.425 115.504C123.123 112.931 123.862 112.258 126.146 110.292C134.919 102.738 131.766 88.1769 121.66 89.5724Z"
     fill="#221B00"
     id="path3" />
  <path
     fill-rule="evenodd"
     clip-rule="evenodd"
     d="M125.547 82.0027C129.835 80.3863 129.545 72.574 126.922 63.4184C124.298 54.2627 118.893 47.7545 114.605 49.3709C110.317 50.9873 108.621 58.9637 111.089 68.5456C113.712 77.7013 120.851 84.1549 125.547 82.0027ZM123.231 78.2983C127.708 76.9352 127.556 68.4485 122.896 59.5299C122.322 58.4328 121.749 57.5253 121.62 57.5133C121.492 57.5014 121.775 58.3817 122.249 59.4695C125.259 66.3782 125.254 73.1231 122.237 76.9408C121.144 78.3247 121.508 78.8222 123.231 78.2983ZM117.41 69.4084C119.698 69.6218 120.293 65.146 118.357 62.2851C116.885 60.1096 115.485 60.9615 115.15 64.2359C114.852 67.1629 115.765 69.2548 117.41 69.4084Z"
     fill="#221B00"
     id="path4" />
  <path
     d="M213.992 41.92H227.528V47.488C229.512 45.248 231.816 43.52 234.44 42.304C237.064 41.088 239.784 40.48 242.6 40.48C246.12 40.48 248.936 41.056 251.048 42.208C253.16 43.296 254.824 44.928 256.04 47.104C258.024 44.992 260.424 43.36 263.24 42.208C266.12 41.056 268.968 40.48 271.784 40.48C277.672 40.48 281.864 41.984 284.36 44.992C286.92 48 288.2 52.352 288.2 58.048V88H274.376V60.064C274.376 57.12 273.8 55.008 272.648 53.728C271.496 52.448 269.64 51.808 267.08 51.808C263.496 51.808 260.616 53.216 258.44 56.032C258.568 58.08 258.632 59.744 258.632 61.024V88H244.712V59.584C244.712 56.768 244.2 54.784 243.176 53.632C242.216 52.416 240.52 51.808 238.088 51.808C234.312 51.808 230.952 53.952 228.008 58.24V88H213.992V41.92ZM324.301 89.44C315.469 89.44 308.525 87.328 303.469 83.104C298.413 78.816 295.885 72.832 295.885 65.152C295.885 57.536 298.125 51.52 302.605 47.104C307.149 42.688 313.613 40.48 321.997 40.48C327.501 40.48 332.173 41.504 336.013 43.552C339.853 45.6 342.765 48.448 344.749 52.096C346.733 55.68 347.725 59.744 347.725 64.288V70.144H309.709C310.733 76.032 316.237 78.976 326.221 78.976C329.165 78.976 332.205 78.72 335.341 78.208C338.477 77.696 341.197 76.992 343.5 76.096V86.272C341.261 87.232 338.381 88 334.861 88.576C331.341 89.152 327.821 89.44 324.301 89.44ZM333.997 60.736C333.805 57.664 332.653 55.296 330.541 53.632C328.429 51.904 325.517 51.04 321.805 51.04C318.157 51.04 315.277 51.904 313.165 53.632C311.053 55.36 309.901 57.728 309.709 60.736H333.997ZM382.238 89.44C373.406 89.44 366.462 87.328 361.406 83.104C356.35 78.816 353.822 72.832 353.822 65.152C353.822 57.536 356.062 51.52 360.542 47.104C365.086 42.688 371.55 40.48 379.934 40.48C385.438 40.48 390.11 41.504 393.95 43.552C397.79 45.6 400.702 48.448 402.686 52.096C404.67 55.68 405.662 59.744 405.662 64.288V70.144H367.646C368.67 76.032 374.174 78.976 384.158 78.976C387.102 78.976 390.142 78.72 393.278 78.208C396.414 77.696 399.134 76.992 401.438 76.096V86.272C399.198 87.232 396.318 88 392.798 88.576C389.278 89.152 385.758 89.44 382.238 89.44ZM391.934 60.736C391.742 57.664 390.59 55.296 388.478 53.632C386.366 51.904 383.454 51.04 379.742 51.04C376.094 51.04 373.214 51.904 371.102 53.632C368.99 55.36 367.838 57.728 367.646 60.736H391.934ZM413.68 41.92H427.696V48.544C429.552 46.304 432.144 44.608 435.472 43.456C438.8 42.24 442.576 41.632 446.8 41.632V52.672C442.384 52.672 438.48 53.344 435.088 54.688C431.76 56.032 429.456 58.08 428.176 60.832V88H413.68V41.92ZM452.961 17.056H467.457V61.408L484.257 41.92H501.057L481.569 64.384L503.457 88H486.657L467.457 67.264V88H452.961V17.056ZM515.107 88C513.571 88 512.259 87.488 511.171 86.464C510.147 85.44 509.635 84.16 509.635 82.624C509.635 81.088 510.179 79.776 511.267 78.688C512.355 77.6 513.635 77.056 515.107 77.056C516.643 77.056 517.955 77.6 519.043 78.688C520.131 79.776 520.674 81.088 520.674 82.624C520.674 84.16 520.131 85.44 519.043 86.464C517.955 87.488 516.643 88 515.107 88ZM545.895 89.44C540.263 89.44 535.655 88.032 532.071 85.216C528.551 82.336 526.791 78.432 526.791 73.504C526.791 68.384 528.487 64.416 531.879 61.6C535.271 58.72 540.071 57.28 546.279 57.28C549.031 57.28 551.655 57.568 554.151 58.144C556.647 58.72 558.855 59.52 560.775 60.544V59.392C560.775 56.512 559.751 54.4 557.703 53.056C555.655 51.712 552.519 51.04 548.295 51.04C542.663 51.04 537.479 52.096 532.743 54.208V43.648C534.791 42.752 537.447 42.016 540.711 41.44C543.975 40.8 547.239 40.48 550.503 40.48C558.823 40.48 565.031 42.208 569.127 45.664C573.223 49.056 575.271 53.824 575.271 59.968V88H561.639V83.776C557.735 87.552 552.487 89.44 545.895 89.44ZM549.831 79.84C552.199 79.84 554.343 79.392 556.263 78.496C558.183 77.6 559.687 76.352 560.775 74.752V70.144C557.511 67.968 553.927 66.88 550.023 66.88C547.335 66.88 545.255 67.456 543.783 68.608C542.375 69.696 541.671 71.328 541.671 73.504C541.671 75.552 542.375 77.12 543.783 78.208C545.191 79.296 547.207 79.84 549.831 79.84ZM584.867 41.92H598.883V47.008C603.555 42.656 609.315 40.48 616.163 40.48C620.963 40.48 625.187 41.504 628.835 43.552C632.547 45.536 635.427 48.384 637.475 52.096C639.523 55.744 640.547 60 640.547 64.864C640.547 69.664 639.523 73.92 637.475 77.632C635.427 81.344 632.547 84.256 628.835 86.368C625.187 88.416 620.963 89.44 616.163 89.44C612.899 89.44 609.795 88.96 606.851 88C603.907 87.04 601.411 85.664 599.363 83.872V109.024H584.867V41.92ZM612.515 78.112C616.419 78.112 619.587 76.896 622.019 74.464C624.515 72.032 625.763 68.832 625.763 64.864C625.763 60.896 624.515 57.728 622.019 55.36C619.587 52.992 616.419 51.808 612.515 51.808C609.507 51.808 606.819 52.608 604.451 54.208C602.083 55.808 600.387 57.92 599.363 60.544V69.28C600.323 71.968 601.987 74.112 604.355 75.712C606.787 77.312 609.507 78.112 612.515 78.112ZM648.711 41.92H662.727V47.008C667.399 42.656 673.159 40.48 680.007 40.48C684.807 40.48 689.031 41.504 692.679 43.552C696.391 45.536 699.271 48.384 701.319 52.096C703.367 55.744 704.391 60 704.391 64.864C704.391 69.664 703.367 73.92 701.319 77.632C699.271 81.344 696.391 84.256 692.679 86.368C689.031 88.416 684.807 89.44 680.007 89.44C676.743 89.44 673.639 88.96 670.695 88C667.751 87.04 665.255 85.664 663.207 83.872V109.024H648.711V41.92ZM676.359 78.112C680.263 78.112 683.431 76.896 685.863 74.464C688.359 72.032 689.607 68.832 689.607 64.864C689.607 60.896 688.359 57.728 685.863 55.36C683.431 52.992 680.263 51.808 676.359 51.808C673.351 51.808 670.663 52.608 668.295 54.208C665.927 55.808 664.231 57.92 663.207 60.544V69.28C664.167 71.968 665.831 74.112 668.199 75.712C670.631 77.312 673.351 78.112 676.359 78.112Z"
     fill="white"
     id="path5" />
  <path
     d="M220.856 136.72C219.192 136.72 217.416 136.528 215.528 136.144C213.64 135.76 212.168 135.232 211.112 134.56V129.424C212.36 130.192 213.848 130.816 215.576 131.296C217.304 131.744 218.936 131.968 220.472 131.968C222.008 131.968 223.128 131.84 223.832 131.584C224.536 131.296 224.888 130.784 224.888 130.048C224.888 129.472 224.696 129.008 224.312 128.656C223.96 128.272 223.368 127.936 222.536 127.648C221.736 127.328 220.488 126.944 218.792 126.496C216.872 125.952 215.352 125.392 214.232 124.816C213.144 124.24 212.312 123.52 211.736 122.656C211.192 121.76 210.92 120.608 210.92 119.2C210.92 116.896 211.832 115.168 213.656 114.016C215.48 112.832 217.944 112.24 221.048 112.24C222.648 112.24 224.232 112.4 225.8 112.72C227.4 113.008 228.648 113.424 229.544 113.968V118.912C228.584 118.336 227.416 117.872 226.04 117.52C224.664 117.168 223.256 116.992 221.816 116.992C220.248 116.992 219.064 117.152 218.264 117.472C217.464 117.76 217.064 118.336 217.064 119.2C217.064 119.776 217.272 120.24 217.688 120.592C218.136 120.912 218.712 121.2 219.416 121.456C220.12 121.68 221.4 122.032 223.256 122.512C225.24 123.056 226.792 123.648 227.912 124.288C229.032 124.928 229.832 125.696 230.312 126.592C230.792 127.488 231.032 128.608 231.032 129.952C231.032 132 230.152 133.648 228.392 134.896C226.664 136.112 224.152 136.72 220.856 136.72ZM248.793 136.72C244.505 136.72 241.113 135.648 238.617 133.504C236.121 131.36 234.873 128.368 234.873 124.528C234.873 120.752 235.977 117.76 238.185 115.552C240.393 113.344 243.545 112.24 247.641 112.24C250.329 112.24 252.617 112.752 254.505 113.776C256.425 114.8 257.865 116.208 258.825 118C259.785 119.76 260.265 121.776 260.265 124.048V126.832H240.633C241.049 130.256 244.025 131.968 249.561 131.968C251.033 131.968 252.537 131.84 254.073 131.584C255.609 131.328 256.953 130.976 258.105 130.528V135.184C257.017 135.632 255.609 136 253.881 136.288C252.185 136.576 250.489 136.72 248.793 136.72ZM254.553 122.704C254.489 120.88 253.833 119.472 252.585 118.48C251.369 117.488 249.689 116.992 247.545 116.992C245.433 116.992 243.769 117.504 242.553 118.528C241.337 119.552 240.697 120.944 240.633 122.704H254.553ZM273.531 136.72C270.779 136.72 268.523 136 266.763 134.56C265.003 133.088 264.123 131.12 264.123 128.656C264.123 126.096 264.955 124.096 266.619 122.656C268.283 121.216 270.619 120.496 273.627 120.496C276.539 120.496 279.051 121.088 281.163 122.272V121.648C281.163 120.016 280.651 118.832 279.627 118.096C278.635 117.36 277.019 116.992 274.779 116.992C273.371 116.992 271.979 117.136 270.603 117.424C269.227 117.68 268.011 118.048 266.955 118.528V113.776C267.915 113.328 269.195 112.96 270.795 112.672C272.427 112.384 273.995 112.24 275.499 112.24C279.499 112.24 282.459 113.104 284.379 114.832C286.299 116.528 287.259 118.896 287.259 121.936V136H281.547V133.744C280.555 134.704 279.419 135.44 278.139 135.952C276.891 136.464 275.355 136.72 273.531 136.72ZM275.019 132.304C276.363 132.304 277.579 132.048 278.667 131.536C279.755 130.992 280.587 130.256 281.163 129.328V126.784C279.403 125.536 277.387 124.912 275.115 124.912C271.883 124.912 270.267 126.16 270.267 128.656C270.267 129.872 270.667 130.784 271.467 131.392C272.299 132 273.483 132.304 275.019 132.304ZM292.786 112.96H298.642V116.656C299.57 115.408 300.882 114.48 302.578 113.872C304.306 113.264 306.274 112.96 308.482 112.96V117.568C306.146 117.568 304.114 117.936 302.386 118.672C300.69 119.376 299.506 120.496 298.834 122.032V136H292.786V112.96ZM324.627 136.72C321.939 136.72 319.571 136.24 317.523 135.28C315.507 134.32 313.939 132.928 312.819 131.104C311.699 129.28 311.139 127.088 311.139 124.528C311.139 121.968 311.699 119.776 312.819 117.952C313.971 116.096 315.555 114.688 317.571 113.728C319.619 112.736 322.003 112.24 324.723 112.24C328.307 112.24 331.171 112.944 333.315 114.352V119.2C331.235 117.728 328.579 116.992 325.347 116.992C322.883 116.992 320.915 117.616 319.443 118.864C318.003 120.08 317.283 121.968 317.283 124.528C317.283 127.056 318.003 128.928 319.443 130.144C320.915 131.36 322.851 131.968 325.251 131.968C328.483 131.968 331.267 131.2 333.603 129.664V134.464C332.451 135.232 331.139 135.792 329.667 136.144C328.227 136.528 326.547 136.72 324.627 136.72ZM338.396 100.528H344.444V115.888C346.62 113.456 349.436 112.24 352.892 112.24C355.996 112.24 358.316 113.088 359.852 114.784C361.388 116.448 362.156 118.672 362.156 121.456V136H356.108V122.032C356.108 118.672 354.54 116.992 351.404 116.992C350.028 116.992 348.732 117.328 347.516 118C346.3 118.64 345.276 119.616 344.444 120.928V136H338.396V100.528Z"
     fill="#F8E287"
     id="path6" />
</svg>
